PathFileType	4	(X/Y/Z)	T1_P2_Vision_NoMovement_3_0-731.trc
DataRate	CameraRate	NumFrames	NumMarkers	Units	OrigDataRate	OrigDataStartFrame	OrigNumFrames
60	60	7	27	m	60	456	731
Frame#	Time	RHip			RKnee			RAnkle			RBigToe			RSmallToe			RHeel			LHip			LKnee			LAnkle			LBigToe			LSmallToe			LHeel			Neck			Head			Nose			RShoulder			RElbow			RWrist			RThumb			RIndex			RPinky			LShoulder			LElbow			LWrist			LThumb			LIndex			LPinky		
		X1	Y1	Z1	X2	Y2	Z2	X3	Y3	Z3	X4	Y4	Z4	X5	Y5	Z5	X6	Y6	Z6	X7	Y7	Z7	X8	Y8	Z8	X9	Y9	Z9	X10	Y10	Z10	X11	Y11	Z11	X12	Y12	Z12	X13	Y13	Z13	X14	Y14	Z14	X15	Y15	Z15	X16	Y16	Z16	X17	Y17	Z17	X18	Y18	Z18	X19	Y19	Z19	X20	Y20	Z20	X21	Y21	Z21	X22	Y22	Z22	X23	Y23	Z23	X24	Y24	Z24	X25	Y25	Z25	X26	Y26	Z26	X27	Y27	Z27
457	7.616666666666666	451.66490103420966	3701.768522926243	647.6451285327562	832.6843051036466	3745.4564931479326	643.6379494545779	1209.350364366589	3750.741495485391	658.5444308751834	1296.5392025056603	3661.393404402491	661.8375960765073	1295.4702178749835	3710.248849184746	607.0093320831103	1276.7538709729429	3814.4336733744412	736.6627022887823	459.39632830958857	3625.6501866764247	854.5087633966574	849.8512739600362	3645.8293446159387	862.5678323478044	1233.3961744192034	3682.8573904883565	863.3032984320716	1301.4716458314997	3540.6612814839445	804.8118909108605	1279.697499704783	3530.8421472671066	847.4134137981694	1259.2074432485763	3704.9877698255295	856.4116706860824	-126.32081488595753	3651.929298933199	754.7280784900092	-387.2772842858702	3573.464300458546	694.6057212689759	-252.1031065656928	3553.482318335673	719.119639355242	-38.203628292178436	3687.2282585011094	601.0556477618827	200.1217680452543	3685.9101116998654	536.4410982080279	351.1894740153083	3553.7990985574716	635.6214683085069	411.9564336325138	3491.6790848326427	707.8512234000984	438.02338872088313	3500.8824950060866	721.4568919234921	462.13173218647125	3514.1986781643755	720.4774739358709	-38.626884706847044	3594.4208438486335	911.2743549315546	206.2262078699909	3516.837600584802	923.4571006800344	354.6914752365551	3423.3493334833584	722.302335735948	387.3838290907706	3426.9116721365203	621.9737248200736	424.9561457501753	3425.273178773813	612.3137506873991	459.7996782950225	3470.273681782069	699.2493071030142
458	7.633333333333334	452.54003398153367	3702.628307667794	648.4360867282037	837.2685284745506	3750.3532472436746	644.4622040872721	1208.6427645942126	3752.410813903061	654.8077653218147	1297.2263960153136	3665.42933917945	661.3981054281055	1295.4256367668297	3710.3878189132815	605.5256617822045	1275.955548969467	3818.027609141911	733.7426750032369	459.43720417900226	3625.328089245953	854.8959051401566	852.2625797023376	3645.0673403335286	861.7645777813707	1232.0907392581198	3682.31348596534	862.8493303248449	1300.7463519626042	3539.7627573030345	804.1971410665882	1280.4819015639075	3528.774595610344	846.6918154979066	1259.5166965895537	3704.510750754166	856.1695477902927	-126.2892415008065	3651.6666455927116	755.1331765639895	-387.40559910985866	3573.5476128382224	694.7357608906169	-251.7323680914827	3555.450051108098	719.7138858792056	-37.497269038580185	3686.501211857491	600.6786813213819	200.07998098317492	3687.6293265682734	537.6686858681787	351.1493308103895	3553.651210270211	635.572538246443	410.9588770169815	3487.9599197905936	704.1929133734743	437.1907142085582	3498.63529477174	719.3281880300173	461.9811003403012	3513.7209913723987	720.3175216543395	-38.662671307505484	3594.403283522623	911.2922611825605	207.72292330043726	3521.509899885977	927.5750266832304	354.35064464066767	3421.6248543077227	723.7995740128749	386.1986011053553	3425.836150070981	621.9195209295199	425.2418549933258	3423.1864035608387	611.8483792722468	460.8197640029873	3471.1939972829764	699.2421990445952
459	7.65	452.8988741332395	3708.550244581569	651.6343145354382	841.9937604796535	3760.901998757331	647.092479644252	1208.9865604806218	3756.358712570732	653.9576694846712	1298.0540724889054	3671.15651676628	661.5868439045811	1295.8244984105254	3711.8903678128577	605.018449884098	1275.1237972036931	3823.0740154035666	731.2133825830235	459.42068341828036	3625.433852705405	854.9750094111274	853.6178460679876	3645.3726806548107	861.477322540896	1231.6633290231796	3682.140524360756	862.6981168137753	1300.2547018493383	3539.1242279562066	803.4969276376904	1281.3970476601226	3527.417736405174	845.8578345074045	1259.8535097372564	3703.587593063406	855.6736764910818	-126.26580135506973	3650.9900440065585	756.1889959215205	-387.49832688226934	3573.5430551967224	694.7557945460579	-251.64896667838755	3556.332768642211	719.4735252454191	-38.23541552455619	3687.115180053351	601.0007853864186	199.7566300351342	3690.9096198773263	540.0743949494458	351.1474408708283	3553.575881030112	635.5594951332274	409.1654156964824	3485.383425244414	702.3627024466114	436.7070028350736	3496.9064001716715	717.7992601918331	461.55386610703385	3510.971643574571	719.5167772573699	-38.71387433616384	3594.3706098252405	911.2831239377792	208.92728455079097	3523.8667179370686	929.4567417582114	354.736184711575	3421.1201384080496	724.5189577592965	385.1900003702979	3424.9570235854435	622.6753267624407	425.6816519189061	3423.0757595136465	613.4624783416001	463.0750572602089	3474.126461709826	700.4068674009762
460	7.666666666666667	452.7142878583573	3717.2532595373395	655.2808780967987	844.119753291317	3773.5029031474855	650.5830079379517	1210.9705081247216	3767.0183798109683	655.6585970961207	1299.4258369880656	3677.738784831731	663.1473578155815	1296.7072577562917	3716.1083605416297	605.5162004934833	1274.794971610333	3832.6693465356598	730.9070442476806	459.13365255044044	3625.9304966973677	855.1528010246018	852.3191160967954	3646.435914097403	861.8111203865531	1231.6029744991613	3682.1914917161544	862.7208706321089	1301.020504028355	3540.169097086891	803.4245405894465	1281.2959249394648	3526.537190540304	845.3853236775952	1259.5567905464914	3702.026403278557	854.8902256219274	-126.24926447868059	3650.0991407989704	757.5769026601586	-387.52639366199867	3573.5361436132935	694.7371708666135	-251.68591949136268	3556.528271583084	719.1147614214734	-39.83341353732092	3688.5184311592457	601.7559697572714	198.95059950855932	3692.890928461842	541.5757301386884	351.1429625736196	3553.636536579286	635.5777565881727	407.41440804735157	3485.1944653140804	702.763193463179	436.4888242138282	3496.2793469383046	717.251201635262	460.65883890575117	3504.987350873197	717.7971227759232	-38.79948391093376	3593.937989554175	910.8538557797086	209.77483381325146	3524.6069758250137	929.8517046005397	355.44143509403114	3421.3727580960754	724.7164083030888	384.8773764125915	3425.571972100918	624.6039465379546	426.4581205085783	3426.274916457575	617.6520427373449	465.42125726644446	3479.01547804002	703.7023865943722
461	7.683333333333334	452.4145195274114	3724.4899321799508	657.7685624810528	842.810681497558	3782.8861463961803	652.9615929423164	1213.7155599580449	3783.3547670259404	658.1183057479127	1300.818230568765	3683.0229856031206	664.5722181895463	1297.6067469382128	3722.2118169593114	606.6059584869361	1276.504296450872	3850.1531333305065	734.311692063919	458.4924506784091	3626.725784044044	855.5632114258226	848.8309909619197	3647.1467901939836	862.3176042440007	1231.203075503983	3682.1016213625926	862.6572954007489	1303.020129307765	3543.369097313317	804.4615588170411	1280.42106584736	3525.849541608768	845.2494377774788	1258.2175096275869	3699.846218710928	853.850249313605	-126.24088030626496	3649.4962522848323	758.5173124343147	-387.5079602244161	3573.5400636123613	694.7277887516486	-251.72309337840346	3556.4429295906803	718.9566070639002	-41.19267800427618	3689.7199703493297	602.4320196295109	198.14462927979912	3693.244584137525	541.8921895362957	351.12561546659623	3553.8024531315286	635.6238871234349	407.50795152529196	3488.1866983638715	705.0192301327743	436.28534505519707	3496.4930705211627	717.3034045706262	459.6021735352822	3498.0414565596325	715.8021443524456	-38.93327584923119	3592.3433654728847	909.264624088263	210.13543550234203	3524.6272000394856	929.7413480632348	355.88712385652923	3421.7146892801957	724.7060904415746	385.65904330009255	3427.9779562291715	627.1681657246984	427.59909934927157	3431.1314852208507	622.3225687977383	466.7347880418547	3483.8393991498674	707.6504618472868
462	7.7	452.14753137373384	3727.20181098818	658.5446911959713	839.4793345780193	3785.5028998702596	652.2946660791004	1215.160988104141	3797.69661154182	658.833104894069	1300.5079791160442	3683.4922060341364	662.9686640017011	1298.2034353657866	3727.582829150439	607.6223627698166	1279.628395841477	3870.7620672611815	738.4562205439545	457.71456020610776	3627.555872047711	856.0557555961182	845.1934699285556	3646.897664266922	862.5167654278857	1230.3456785776536	3681.7143964952666	862.4138121860276	1304.4913110671343	3546.1688287972556	805.7666564058902	1280.1187049612574	3525.6126353679	845.3514601571062	1256.7100175675207	3697.9442167591496	852.9357594640685	-126.24315238098617	3649.542440566945	758.4530003202314	-387.47833552521604	3573.5521448604463	694.7378627803788	-251.7345290168662	3556.324373471268	718.9368637960293	-41.76943334699932	3690.2488690917417	602.7629081426346	198.2188038709742	3693.104280831147	541.7937612672209	351.13167337672047	3553.9999187532244	635.7035941745917	409.56945097307073	3493.363261225454	707.8919516204666	436.2284662417745	3497.1498861750656	717.7815882427142	459.1499653077061	3494.9665988025604	714.9390766300393	-39.08877701232666	3589.8339591232307	906.7993822046847	210.13276355697937	3524.4643543070797	929.6103425626815	355.98161131333933	3421.890824788048	724.6512602274345	387.34813211870113	3430.138746848815	628.67014814154	428.80871443736737	3434.0174361172935	624.0298305905965	467.0274541492513	3486.002704869817	709.6113437110406
463	7.716666666666667	452.0596551606693	3727.4866108540887	658.5103188871841	835.8007803814555	3781.6717555207024	647.9318669859634	1213.9696633779054	3803.2816905307923	656.3063161253284	1297.8169629330876	3678.4427326210325	657.8491715009051	1298.6535603470836	3731.9995156645946	608.6394111382501	1280.6772708962874	3884.0976985794487	738.0642562565108	456.9797895692508	3628.334229291056	856.5335730008179	842.9058547966126	3646.282448530131	862.4404220338166	1229.7522006627632	3681.38998878251	862.2105533358636	1304.1840752898427	3545.7667214379235	806.053057592931	1281.4206688973684	3526.2568454593174	845.6612698455422	1256.7743339707054	3697.7564334199487	852.8990229128519	-126.25914922395575	3650.1544064455884	757.5225254222777	-387.4487830497626	3573.560632278921	694.7507815064964	-251.73286117750322	3556.2741382233785	718.9461920700468	-41.66663141904188	3690.199008786761	602.7729802609008	199.49445724340404	3693.2262181941805	541.811935979937	351.17884829039195	3554.1841009050177	635.8026265200206	411.14779814627616	3499.0159830685243	710.645301835159	436.2657657732248	3498.4617039474433	719.2171562630136	459.73936122474004	3498.3188718135007	715.9678312692128	-39.16653544648669	3588.41301619868	905.59164610957	209.98925869552374	3524.3512493195717	929.5766680380427	355.90263462953203	3421.9409481792904	724.6145645247977	389.0405168257934	3429.867668135184	628.1022277445365	429.71117715222556	3432.9264371350773	621.4544753620985	466.91709915398343	3485.215625484522	709.0347917360301
